<svg xmlns="http://www.w3.org/2000/svg" width="100%" height="100%" viewBox="0 0 230.5 230.5" version="1.1"><path fill="none" stroke="#000" stroke-linejoin="round" stroke-miterlimit="1.41" stroke-opacity=".1" stroke-width="1" d="M158.22 230H72.28l-8.22-.01a320 320 0 0 1-6.93-.11c-5.05-.06-10.09-.5-15.07-1.32a50.83 50.83 0 0 1-14.33-4.73 48.2 48.2 0 0 1-21.07-21.06 50.85 50.85 0 0 1-4.72-14.34 100.68 100.68 0 0 1-1.33-15.07c-.06-2.31-.1-4.62-.1-6.93-.02-2.74-.02-5.48-.02-8.22V72.29c0-2.75 0-5.48.02-8.23a320 320 0 0 1 .1-6.93c.06-5.05.5-10.08 1.33-15.06a50.74 50.74 0 0 1 4.72-14.34A48.2 48.2 0 0 1 27.74 6.66a51.02 51.02 0 0 1 14.33-4.73C47.05 1.12 52.09.67 57.14.61a320 320 0 0 1 6.93-.1L72.3.5h85.92l8.23.01a320 320 0 0 1 6.92.1c5.06.07 10.1.5 15.08 1.33 4.98.85 9.81 2.45 14.33 4.72a48.19 48.19 0 0 1 21.07 21.07 50.9 50.9 0 0 1 4.72 14.34c.82 4.98 1.27 10.02 1.33 15.07a320 320 0 0 1 .1 6.92l.01 3.48v94.09l-.01 4.8c-.01 2.3-.05 4.62-.1 6.93-.07 5.05-.5 10.08-1.33 15.07a50.68 50.68 0 0 1-4.72 14.33 48.2 48.2 0 0 1-21.07 21.07 50.8 50.8 0 0 1-14.33 4.73c-4.98.82-10.02 1.26-15.08 1.32a320 320 0 0 1-6.92.1l-8.23.02z" clip-rule="evenodd" vector-effect="non-scaling-stroke"/></svg>
