<?xml version="1.0" standalone="no"?>
<!DOCTYPE svg PUBLIC "-//W3C//DTD SVG 20010904//EN"
 "http://www.w3.org/TR/2001/REC-SVG-20010904/DTD/svg10.dtd">
<svg version="1.0" xmlns="http://www.w3.org/2000/svg"
 width="1024.000000pt" height="1024.000000pt" viewBox="0 0 1024.000000 1024.000000"
 preserveAspectRatio="xMidYMid meet">
<metadata>
Created by potrace 1.11, written by Peter Selinger 2001-2013
</metadata>
<g transform="translate(0.000000,1024.000000) scale(0.100000,-0.100000)"
fill="#000000" stroke="none">
<path d="M9775 8489 c-314 -54 -880 -228 -1175 -361 -14 -6 -38 -17 -55 -24
-16 -7 -100 -46 -186 -87 -451 -215 -803 -475 -996 -735 -56 -74 -118 -187
-142 -255 -49 -141 -45 -406 6 -449 11 -9 28 -9 76 1 98 21 206 39 277 46 36
4 72 8 80 10 8 2 53 6 100 10 47 4 96 9 110 10 14 2 63 6 110 10 47 4 101 8
120 10 271 24 648 25 759 1 92 -19 186 -63 229 -107 60 -60 104 -155 118 -256
3 -26 8 -57 10 -68 2 -11 6 -96 9 -190 7 -211 11 -251 30 -306 35 -99 89 -114
194 -51 78 45 242 206 323 315 111 150 197 372 232 597 3 19 8 46 11 60 3 14
8 50 11 80 3 30 7 62 9 70 4 15 10 64 20 175 3 33 8 83 11 110 6 61 13 154 19
260 2 44 7 118 10 165 3 47 8 123 10 170 2 47 7 126 10 175 3 50 7 133 10 185
7 139 14 263 20 363 l6 88 -138 -3 c-76 -1 -183 -10 -238 -19z"/>
<path d="M517 7654 c-1 -1 -40 -4 -87 -8 -175 -13 -298 -56 -334 -117 -33 -57
-7 -261 66 -519 33 -116 91 -293 118 -355 9 -22 25 -60 35 -85 74 -186 222
-493 314 -652 11 -21 29 -53 40 -71 178 -314 431 -644 578 -754 21 -15 40 -30
43 -33 17 -17 88 -48 197 -86 l124 -43 -6 72 c-3 40 -7 95 -10 122 -2 28 -7
86 -10 130 -3 44 -8 98 -10 120 -7 60 -15 210 -16 295 -1 229 54 346 203 434
38 22 194 79 251 90 12 3 33 8 47 11 34 8 374 62 430 69 99 12 146 18 170 21
14 2 48 7 75 11 28 3 57 8 65 9 8 2 35 6 60 10 242 37 412 92 496 160 126 104
56 249 -233 482 -244 197 -468 304 -901 434 -119 36 -458 119 -537 132 -16 3
-55 10 -85 17 -30 6 -66 13 -80 15 -14 3 -35 7 -48 9 -13 3 -56 10 -95 16 -40
5 -85 12 -102 15 -73 11 -298 35 -385 41 -91 6 -368 12 -373 8z"/>
<path d="M6987 5264 c-1 -1 -74 -5 -162 -9 -88 -3 -176 -8 -195 -10 -19 -1
-78 -6 -130 -9 -52 -4 -106 -9 -120 -11 -27 -5 -91 -11 -205 -20 -38 -3 -77
-8 -85 -10 -8 -2 -49 -7 -90 -10 -41 -3 -82 -8 -90 -10 -8 -2 -49 -7 -90 -10
-41 -4 -77 -8 -80 -10 -3 -1 -41 -6 -84 -10 -43 -4 -87 -8 -97 -10 -10 -2 -49
-6 -87 -10 -38 -3 -78 -7 -88 -9 -10 -2 -46 -7 -79 -10 -33 -4 -73 -9 -90 -11
-16 -3 -95 -12 -175 -21 -80 -9 -156 -18 -170 -20 -57 -7 -127 -15 -160 -19
-60 -7 -203 -25 -240 -31 -19 -2 -53 -7 -75 -10 -22 -2 -51 -7 -65 -9 -14 -2
-45 -7 -70 -10 -52 -7 -83 -12 -160 -25 -30 -5 -73 -12 -95 -15 -83 -13 -102
-17 -185 -37 -47 -11 -96 -22 -110 -24 -14 -3 -47 -12 -75 -21 -358 -110 -476
-229 -520 -518 -6 -42 -7 -302 -1 -392 3 -45 10 -127 21 -263 1 -19 6 -73 9
-120 4 -47 9 -92 11 -100 2 -8 7 -40 10 -70 8 -70 34 -236 40 -252 2 -7 7 -31
10 -52 5 -37 48 -206 75 -300 24 -80 83 -224 131 -320 184 -365 454 -585 835
-681 176 -45 285 -54 599 -50 299 4 320 6 416 35 94 28 165 80 326 235 329
317 398 340 607 197 152 -105 317 -142 624 -142 292 0 570 59 716 152 64 42
162 122 201 167 16 19 35 39 40 45 26 27 108 161 134 218 55 122 101 280 117
403 3 28 8 52 9 56 7 11 18 239 18 364 -1 117 -8 269 -18 380 -2 22 -6 76 -10
120 -3 44 -8 98 -10 120 -2 22 -7 72 -10 110 -3 39 -8 84 -10 100 -2 17 -7 57
-10 90 -4 33 -8 67 -10 75 -2 8 -7 35 -10 60 -9 64 -42 204 -66 280 -97 299
-308 435 -704 456 -176 9 -215 11 -218 8z m-266 -1104 c101 -31 202 -107 256
-193 108 -171 80 -419 -60 -549 -102 -95 -284 -143 -420 -111 -72 16 -107 34
-159 81 -109 98 -153 257 -122 437 29 169 130 295 270 339 69 21 161 19 235
-4z m-1846 -250 c80 -30 221 -160 272 -250 100 -176 68 -366 -83 -499 -150
-131 -380 -147 -579 -39 -164 89 -209 353 -94 553 37 64 76 106 147 153 134
91 243 118 337 82z"/>
</g>
</svg>
