<svg width="24" height="24" viewBox="0 0 24 24" fill="none"
    xmlns="http://www.w3.org/2000/svg">
    <path d="M1.20312 6.13286C1.20312 5.82333 1.32162 5.55714 1.5586 5.33429C1.80806 5.11143 2.10741 5 2.45665 5H10.801C10.801 5.74286 10.6701 6.28762 10.4081 6.63429C10.1587 6.96857 9.74706 7.13571 9.17331 7.13571H3.71018V10.3671H8.68686C8.68686 11.11 8.5559 11.6548 8.29397 12.0014C8.04451 12.3357 7.6329 12.5029 7.05915 12.5029H3.71018V15.8643H9.5662C10.1275 15.8643 10.5329 16.0376 10.7823 16.3843C11.0442 16.7186 11.1752 17.2571 11.1752 18H2.45665C2.10741 18 1.80806 17.8948 1.5586 17.6843C1.32162 17.4614 1.20312 17.189 1.20312 16.8671V6.13286Z" />
    <path d="M13.1487 18C12.8119 18 12.5188 17.8886 12.2694 17.6657C12.0199 17.4429 11.8952 17.1767 11.8952 16.8671V6.13286C11.8952 5.82333 12.0137 5.55714 12.2507 5.33429C12.5001 5.11143 12.7995 5 13.1487 5H18.1815C19.3789 5 20.3331 5.33429 21.0441 6.00286C21.7675 6.65905 22.1292 7.54429 22.1292 8.65857C22.1292 9.19095 21.9858 9.69857 21.6989 10.1814C21.412 10.6519 21.0316 11.0171 20.5576 11.2771V11.3329C21.2062 11.5557 21.7176 11.921 22.0918 12.4286C22.4784 12.9362 22.6718 13.5181 22.6718 14.1743C22.6718 14.9171 22.4971 15.5795 22.1479 16.1614C21.7987 16.7433 21.3122 17.1952 20.6886 17.5171C20.0649 17.839 19.354 18 18.5557 18H13.1487ZM18.1441 10.46C18.5557 10.46 18.9049 10.2929 19.1918 9.95857C19.4912 9.62429 19.6408 9.22191 19.6408 8.75143C19.6408 8.24381 19.5036 7.84143 19.2292 7.54429C18.9673 7.24714 18.6056 7.09857 18.1441 7.09857H14.3274V10.46H18.1441ZM18.5183 15.9014C19.0297 15.9014 19.435 15.7529 19.7344 15.4557C20.0337 15.1462 20.1834 14.7252 20.1834 14.1929C20.1834 13.6729 20.0337 13.2705 19.7344 12.9857C19.4475 12.6886 19.0421 12.54 18.5183 12.54H14.3274V15.9014H18.5183Z" />
</svg>
