<svg width="24" height="24" viewBox="0 0 24 24" fill="none"
    xmlns="http://www.w3.org/2000/svg">
    <path fill-rule="evenodd" clip-rule="evenodd" d="M4.675 20C3.675 20 2.82083 19.6417 2.1125 18.925C1.40417 18.2083 1.03333 17.3417 1 16.325C1 16.175 1.00833 16.025 1.025 15.875C1.04167 15.725 1.06667 15.575 1.1 15.425L3.2 7.025C3.43333 6.125 3.90833 5.39583 4.625 4.8375C5.34167 4.27917 6.15833 4 7.075 4H16.825C17.7417 4 18.5583 4.27917 19.275 4.8375C19.9917 5.39583 20.4667 6.125 20.7 7.025L22.8 15.425C22.8333 15.575 22.8625 15.7292 22.8875 15.8875C22.9125 16.0458 22.925 16.2 22.925 16.35C22.925 17.3667 22.5625 18.2292 21.8375 18.9375C21.1125 19.6458 20.2417 20 19.225 20C18.525 20 17.875 19.8167 17.275 19.45C16.675 19.0833 16.225 18.5833 15.925 17.95L15.225 16.5C15.1417 16.3333 15.0167 16.2083 14.85 16.125C14.6833 16.0417 14.5083 16 14.325 16H9.575C9.39167 16 9.21667 16.0417 9.05 16.125C8.88333 16.2083 8.75833 16.3333 8.675 16.5L7.975 17.95C7.675 18.5833 7.225 19.0833 6.625 19.45C6.025 19.8167 5.375 20 4.675 20ZM14.1656 10.7125C13.974 10.9042 13.7365 11 13.4531 11C13.1698 11 12.9323 10.9042 12.7406 10.7125C12.549 10.5208 12.4531 10.2833 12.4531 10C12.4531 9.71667 12.549 9.47917 12.7406 9.2875C12.9323 9.09583 13.1698 9 13.4531 9C13.7365 9 13.974 9.09583 14.1656 9.2875C14.3573 9.47917 14.4531 9.71667 14.4531 10C14.4531 10.2833 14.3573 10.5208 14.1656 10.7125ZM16.1656 8.7125C15.974 8.90417 15.7365 9 15.4531 9C15.1698 9 14.9323 8.90417 14.7406 8.7125C14.549 8.52083 14.4531 8.28333 14.4531 8C14.4531 7.71667 14.549 7.47917 14.7406 7.2875C14.9323 7.09583 15.1698 7 15.4531 7C15.7365 7 15.974 7.09583 16.1656 7.2875C16.3573 7.47917 16.4531 7.71667 16.4531 8C16.4531 8.28333 16.3573 8.52083 16.1656 8.7125ZM16.1656 12.7125C15.974 12.9042 15.7365 13 15.4531 13C15.1698 13 14.9323 12.9042 14.7406 12.7125C14.549 12.5208 14.4531 12.2833 14.4531 12C14.4531 11.7167 14.549 11.4792 14.7406 11.2875C14.9323 11.0958 15.1698 11 15.4531 11C15.7365 11 15.974 11.0958 16.1656 11.2875C16.3573 11.4792 16.4531 11.7167 16.4531 12C16.4531 12.2833 16.3573 12.5208 16.1656 12.7125ZM18.1656 10.7125C17.974 10.9042 17.7365 11 17.4531 11C17.1698 11 16.9323 10.9042 16.7406 10.7125C16.549 10.5208 16.4531 10.2833 16.4531 10C16.4531 9.71667 16.549 9.47917 16.7406 9.2875C16.9323 9.09583 17.1698 9 17.4531 9C17.7365 9 17.974 9.09583 18.1656 9.2875C18.3573 9.47917 18.4531 9.71667 18.4531 10C18.4531 10.2833 18.3573 10.5208 18.1656 10.7125ZM8.99063 12.2875C8.84896 12.4292 8.66979 12.5 8.45313 12.5C8.23646 12.5 8.05729 12.4292 7.91563 12.2875C7.77396 12.1458 7.70313 11.9667 7.70313 11.75V10.75H6.70312C6.48646 10.75 6.30729 10.6792 6.16563 10.5375C6.02396 10.3958 5.95312 10.2167 5.95312 10C5.95312 9.78333 6.02396 9.60417 6.16563 9.4625C6.30729 9.32083 6.48646 9.25 6.70312 9.25H7.70313V8.25C7.70313 8.03333 7.77396 7.85417 7.91563 7.7125C8.05729 7.57083 8.23646 7.5 8.45313 7.5C8.66979 7.5 8.84896 7.57083 8.99063 7.7125C9.13229 7.85417 9.20312 8.03333 9.20312 8.25V9.25H10.2031C10.4198 9.25 10.599 9.32083 10.7406 9.4625C10.8823 9.60417 10.9531 9.78333 10.9531 10C10.9531 10.2167 10.8823 10.3958 10.7406 10.5375C10.599 10.6792 10.4198 10.75 10.2031 10.75H9.20312V11.75C9.20312 11.9667 9.13229 12.1458 8.99063 12.2875Z" />
</svg>
