<svg width="24" height="24" viewBox="0 0 24 24" fill="none" xmlns="http://www.w3.org/2000/svg">
<path fill-rule="evenodd" clip-rule="evenodd" d="M2.1125 18.925C2.82083 19.6417 3.675 20 4.675 20C5.375 20 6.025 19.8167 6.625 19.45C7.225 19.0833 7.675 18.5833 7.975 17.95L8.675 16.5C8.75833 16.3333 8.88333 16.2083 9.05 16.125C9.21667 16.0417 9.39167 16 9.575 16H14.325C14.5083 16 14.6833 16.0417 14.85 16.125C15.0167 16.2083 15.1417 16.3333 15.225 16.5L15.925 17.95C16.225 18.5833 16.675 19.0833 17.275 19.45C17.875 19.8167 18.525 20 19.225 20C20.2417 20 21.1125 19.6458 21.8375 18.9375C22.5625 18.2292 22.925 17.3667 22.925 16.35C22.925 16.2 22.9125 16.0458 22.8875 15.8875C22.8625 15.7292 22.8333 15.575 22.8 15.425L20.7 7.025C20.4667 6.125 19.9917 5.39583 19.275 4.8375C18.5583 4.27917 17.7417 4 16.825 4H7.075C6.15833 4 5.34167 4.27917 4.625 4.8375C3.90833 5.39583 3.43333 6.125 3.2 7.025L1.1 15.425C1.06667 15.575 1.04167 15.725 1.025 15.875C1.00833 16.025 1 16.175 1 16.325C1.03333 17.3417 1.40417 18.2083 2.1125 18.925ZM13.4531 11C13.7365 11 13.974 10.9042 14.1656 10.7125C14.3573 10.5208 14.4531 10.2833 14.4531 10C14.4531 9.71667 14.3573 9.47917 14.1656 9.2875C13.974 9.09583 13.7365 9 13.4531 9C13.1698 9 12.9323 9.09583 12.7406 9.2875C12.549 9.47917 12.4531 9.71667 12.4531 10C12.4531 10.2833 12.549 10.5208 12.7406 10.7125C12.9323 10.9042 13.1698 11 13.4531 11ZM15.4531 9C15.7365 9 15.974 8.90417 16.1656 8.7125C16.3573 8.52083 16.4531 8.28333 16.4531 8C16.4531 7.71667 16.3573 7.47917 16.1656 7.2875C15.974 7.09583 15.7365 7 15.4531 7C15.1698 7 14.9323 7.09583 14.7406 7.2875C14.549 7.47917 14.4531 7.71667 14.4531 8C14.4531 8.28333 14.549 8.52083 14.7406 8.7125C14.9323 8.90417 15.1698 9 15.4531 9ZM15.4531 13C15.7365 13 15.974 12.9042 16.1656 12.7125C16.3573 12.5208 16.4531 12.2833 16.4531 12C16.4531 11.7167 16.3573 11.4792 16.1656 11.2875C15.974 11.0958 15.7365 11 15.4531 11C15.1698 11 14.9323 11.0958 14.7406 11.2875C14.549 11.4792 14.4531 11.7167 14.4531 12C14.4531 12.2833 14.549 12.5208 14.7406 12.7125C14.9323 12.9042 15.1698 13 15.4531 13ZM17.4531 11C17.7365 11 17.974 10.9042 18.1656 10.7125C18.3573 10.5208 18.4531 10.2833 18.4531 10C18.4531 9.71667 18.3573 9.47917 18.1656 9.2875C17.974 9.09583 17.7365 9 17.4531 9C17.1698 9 16.9323 9.09583 16.7406 9.2875C16.549 9.47917 16.4531 9.71667 16.4531 10C16.4531 10.2833 16.549 10.5208 16.7406 10.7125C16.9323 10.9042 17.1698 11 17.4531 11ZM8.45312 12.5C8.66979 12.5 8.84896 12.4292 8.99063 12.2875C9.13229 12.1458 9.20312 11.9667 9.20312 11.75V10.75H10.2031C10.4198 10.75 10.599 10.6792 10.7406 10.5375C10.8823 10.3958 10.9531 10.2167 10.9531 10C10.9531 9.78333 10.8823 9.60417 10.7406 9.4625C10.599 9.32083 10.4198 9.25 10.2031 9.25H9.20312V8.25C9.20312 8.03333 9.13229 7.85417 8.99063 7.7125C8.84896 7.57083 8.66979 7.5 8.45312 7.5C8.23646 7.5 8.05729 7.57083 7.91563 7.7125C7.77396 7.85417 7.70313 8.03333 7.70313 8.25V9.25H6.70312C6.48646 9.25 6.30729 9.32083 6.16563 9.4625C6.02396 9.60417 5.95312 9.78333 5.95312 10C5.95312 10.2167 6.02396 10.3958 6.16563 10.5375C6.30729 10.6792 6.48646 10.75 6.70312 10.75H7.70313V11.75C7.70313 11.9667 7.77396 12.1458 7.91563 12.2875C8.05729 12.4292 8.23646 12.5 8.45312 12.5Z" fill="white"/>
</svg>
