<svg width="24" height="24" viewBox="0 0 24 24" fill="none"
    xmlns="http://www.w3.org/2000/svg">
    <path d="M4.675 20C3.675 20 2.82083 19.6417 2.1125 18.925C1.40417 18.2083 1.03333 17.3417 1 16.325C1 16.175 1.00833 16.025 1.025 15.875C1.04167 15.725 1.06667 15.575 1.1 15.425L3.2 7.025C3.43333 6.125 3.90833 5.39583 4.625 4.8375C5.34167 4.27917 6.15833 4 7.075 4H16.825C17.7417 4 18.5583 4.27917 19.275 4.8375C19.9917 5.39583 20.4667 6.125 20.7 7.025L22.8 15.425C22.8333 15.575 22.8625 15.7292 22.8875 15.8875C22.9125 16.0458 22.925 16.2 22.925 16.35C22.925 17.3667 22.5625 18.2292 21.8375 18.9375C21.1125 19.6458 20.2417 20 19.225 20C18.525 20 17.875 19.8167 17.275 19.45C16.675 19.0833 16.225 18.5833 15.925 17.95L15.225 16.5C15.1417 16.3333 15.0167 16.2083 14.85 16.125C14.6833 16.0417 14.5083 16 14.325 16H9.575C9.39167 16 9.21667 16.0417 9.05 16.125C8.88333 16.2083 8.75833 16.3333 8.675 16.5L7.975 17.95C7.675 18.5833 7.225 19.0833 6.625 19.45C6.025 19.8167 5.375 20 4.675 20ZM4.75 18C5.06667 18 5.35417 17.9167 5.6125 17.75C5.87083 17.5833 6.06667 17.3583 6.2 17.075L6.9 15.65C7.15 15.1333 7.51667 14.7292 8 14.4375C8.48333 14.1458 9.00833 14 9.575 14H14.325C14.8917 14 15.4167 14.15 15.9 14.45C16.3833 14.75 16.7583 15.15 17.025 15.65L17.725 17.075C17.8583 17.3583 18.0542 17.5833 18.3125 17.75C18.5708 17.9167 18.8583 18 19.175 18C19.6417 18 20.0417 17.8458 20.375 17.5375C20.7083 17.2292 20.8833 16.8417 20.9 16.375C20.9 16.3917 20.8833 16.2333 20.85 15.9L18.75 7.525C18.6333 7.075 18.4 6.70833 18.05 6.425C17.7 6.14167 17.2917 6 16.825 6H7.075C6.60833 6 6.19583 6.14167 5.8375 6.425C5.47917 6.70833 5.25 7.075 5.15 7.525L3.05 15.9C3.01667 16 3 16.15 3 16.35C3 16.8167 3.17083 17.2083 3.5125 17.525C3.85417 17.8417 4.26667 18 4.75 18ZM13.45 11C13.7333 11 13.9708 10.9042 14.1625 10.7125C14.3542 10.5208 14.45 10.2833 14.45 10C14.45 9.71667 14.3542 9.47917 14.1625 9.2875C13.9708 9.09583 13.7333 9 13.45 9C13.1667 9 12.9292 9.09583 12.7375 9.2875C12.5458 9.47917 12.45 9.71667 12.45 10C12.45 10.2833 12.5458 10.5208 12.7375 10.7125C12.9292 10.9042 13.1667 11 13.45 11ZM15.45 9C15.7333 9 15.9708 8.90417 16.1625 8.7125C16.3542 8.52083 16.45 8.28333 16.45 8C16.45 7.71667 16.3542 7.47917 16.1625 7.2875C15.9708 7.09583 15.7333 7 15.45 7C15.1667 7 14.9292 7.09583 14.7375 7.2875C14.5458 7.47917 14.45 7.71667 14.45 8C14.45 8.28333 14.5458 8.52083 14.7375 8.7125C14.9292 8.90417 15.1667 9 15.45 9ZM15.45 13C15.7333 13 15.9708 12.9042 16.1625 12.7125C16.3542 12.5208 16.45 12.2833 16.45 12C16.45 11.7167 16.3542 11.4792 16.1625 11.2875C15.9708 11.0958 15.7333 11 15.45 11C15.1667 11 14.9292 11.0958 14.7375 11.2875C14.5458 11.4792 14.45 11.7167 14.45 12C14.45 12.2833 14.5458 12.5208 14.7375 12.7125C14.9292 12.9042 15.1667 13 15.45 13ZM17.45 11C17.7333 11 17.9708 10.9042 18.1625 10.7125C18.3542 10.5208 18.45 10.2833 18.45 10C18.45 9.71667 18.3542 9.47917 18.1625 9.2875C17.9708 9.09583 17.7333 9 17.45 9C17.1667 9 16.9292 9.09583 16.7375 9.2875C16.5458 9.47917 16.45 9.71667 16.45 10C16.45 10.2833 16.5458 10.5208 16.7375 10.7125C16.9292 10.9042 17.1667 11 17.45 11ZM8.45 12.5C8.66667 12.5 8.84583 12.4292 8.9875 12.2875C9.12917 12.1458 9.2 11.9667 9.2 11.75V10.75H10.2C10.4167 10.75 10.5958 10.6792 10.7375 10.5375C10.8792 10.3958 10.95 10.2167 10.95 10C10.95 9.78333 10.8792 9.60417 10.7375 9.4625C10.5958 9.32083 10.4167 9.25 10.2 9.25H9.2V8.25C9.2 8.03333 9.12917 7.85417 8.9875 7.7125C8.84583 7.57083 8.66667 7.5 8.45 7.5C8.23333 7.5 8.05417 7.57083 7.9125 7.7125C7.77083 7.85417 7.7 8.03333 7.7 8.25V9.25H6.7C6.48333 9.25 6.30417 9.32083 6.1625 9.4625C6.02083 9.60417 5.95 9.78333 5.95 10C5.95 10.2167 6.02083 10.3958 6.1625 10.5375C6.30417 10.6792 6.48333 10.75 6.7 10.75H7.7V11.75C7.7 11.9667 7.77083 12.1458 7.9125 12.2875C8.05417 12.4292 8.23333 12.5 8.45 12.5Z" />
</svg>
