<svg width="72" height="24" viewBox="0 0 72 24" fill="none"
    xmlns="http://www.w3.org/2000/svg">
    <path d="M1.7425 7.4545C1.7425 7.2025 1.837 6.991 2.026 6.82C2.224 6.64 2.4625 6.55 2.7415 6.55H8.776C8.776 7.144 8.677 7.576 8.479 7.846C8.281 8.116 7.9615 8.251 7.5205 8.251H3.727V10.384H7.264C7.264 10.978 7.165 11.41 6.967 11.68C6.769 11.95 6.4495 12.085 6.0085 12.085H3.727V14.299H7.804C8.236 14.299 8.551 14.434 8.749 14.704C8.947 14.974 9.046 15.406 9.046 16H2.7415C2.4625 16 2.224 15.9145 2.026 15.7435C1.837 15.5725 1.7425 15.3565 1.7425 15.0955V7.4545ZM12.2171 16.1215C11.9741 16.1215 11.7626 16.0675 11.5826 15.9595C11.4116 15.8515 11.2901 15.703 11.2181 15.514L8.84213 9.277C8.90513 9.232 9.02213 9.196 9.19313 9.169C9.37313 9.142 9.52163 9.1285 9.63863 9.1285C9.92663 9.1285 10.1831 9.187 10.4081 9.304C10.6421 9.412 10.7951 9.5785 10.8671 9.8035L12.1226 13.7995L11.8931 14.461L12.0146 14.5015L13.5671 9.8035C13.6391 9.5785 13.7876 9.412 14.0126 9.304C14.2466 9.187 14.5076 9.1285 14.7956 9.1285C14.9126 9.1285 15.0566 9.142 15.2276 9.169C15.4076 9.196 15.5291 9.232 15.5921 9.277L13.2161 15.514C13.1441 15.703 13.0181 15.8515 12.8381 15.9595C12.6671 16.0675 12.4601 16.1215 12.2171 16.1215ZM18.3141 16.1215C17.8731 16.1215 17.4591 16.036 17.0721 15.865C16.6941 15.685 16.3881 15.4285 16.1541 15.0955C15.9201 14.7535 15.8031 14.344 15.8031 13.867C15.8031 13.39 15.9291 12.9805 16.1811 12.6385C16.4331 12.2875 16.7661 12.022 17.1801 11.842C17.6031 11.662 18.0621 11.572 18.5571 11.572C18.9711 11.572 19.3356 11.635 19.6506 11.761C19.9746 11.887 20.2761 12.0715 20.5551 12.3145L20.6226 12.2335C20.4336 12.0625 20.2851 11.941 20.1771 11.869V11.6935C20.1771 11.3515 20.0511 11.0815 19.7991 10.8835C19.5561 10.6765 19.2096 10.573 18.7596 10.573C18.3636 10.573 18.0126 10.645 17.7066 10.789C17.4006 10.933 17.1531 11.1445 16.9641 11.4235C16.7481 11.3695 16.5636 11.2705 16.4106 11.1265C16.2666 10.9735 16.1946 10.807 16.1946 10.627C16.1946 10.348 16.3161 10.096 16.5591 9.871C16.8021 9.637 17.1306 9.457 17.5446 9.331C17.9676 9.196 18.4311 9.1285 18.9351 9.1285C19.9161 9.1285 20.6721 9.3535 21.2031 9.8035C21.7341 10.2535 21.9996 10.8655 21.9996 11.6395V14.92C21.9996 15.343 21.8601 15.649 21.5811 15.838C21.3111 16.027 20.8791 16.1215 20.2851 16.1215V15.595C20.4201 15.469 20.5281 15.3565 20.6091 15.2575L20.5416 15.19C20.2446 15.496 19.9341 15.73 19.6101 15.892C19.2861 16.045 18.8541 16.1215 18.3141 16.1215ZM18.8271 14.7985C19.2591 14.7985 19.5966 14.7175 19.8396 14.5555C20.0826 14.3935 20.2041 14.1595 20.2041 13.8535C20.2041 13.5565 20.0781 13.3225 19.8261 13.1515C19.5831 12.9805 19.2501 12.895 18.8271 12.895C18.4491 12.895 18.1476 12.9805 17.9226 13.1515C17.7066 13.3225 17.5986 13.5565 17.5986 13.8535C17.5986 14.1595 17.7066 14.3935 17.9226 14.5555C18.1476 14.7175 18.4491 14.7985 18.8271 14.7985ZM23.4163 10.5325C23.4163 10.0825 23.5648 9.736 23.8618 9.493C24.1588 9.25 24.5998 9.1285 25.1848 9.1285V9.925C25.0498 10.069 24.9373 10.222 24.8473 10.384L24.9418 10.438C25.2118 10.024 25.5538 9.7045 25.9678 9.4795C26.3908 9.2455 26.8588 9.1285 27.3718 9.1285C27.8218 9.1285 28.2178 9.232 28.5598 9.439C28.9108 9.646 29.1853 9.934 29.3833 10.303C29.5813 10.663 29.6803 11.068 29.6803 11.518V15.0415C29.6803 15.4285 29.5273 15.7075 29.2213 15.8785C28.9153 16.0405 28.4518 16.1215 27.8308 16.1215V11.8015C27.8308 11.4955 27.7318 11.239 27.5338 11.032C27.3448 10.825 27.0748 10.7215 26.7238 10.7215C26.2918 10.7215 25.9408 10.861 25.6708 11.14C25.4008 11.419 25.2658 11.77 25.2658 12.193V15.0415C25.2658 15.4285 25.1128 15.7075 24.8068 15.8785C24.5098 16.0405 24.0463 16.1215 23.4163 16.1215V10.5325ZM34.1643 16C33.8943 16 33.6603 15.9145 33.4623 15.7435C33.2643 15.5635 33.1653 15.3475 33.1653 15.0955V7.4545C33.1653 7.2025 33.2598 6.991 33.4488 6.82C33.6468 6.64 33.8853 6.55 34.1643 6.55H37.7418C38.6418 6.55 39.3573 6.793 39.8883 7.279C40.4283 7.765 40.6983 8.4175 40.6983 9.2365C40.6983 9.6055 40.5948 9.961 40.3878 10.303C40.1898 10.636 39.9243 10.9015 39.5913 11.0995V11.1535C40.0503 11.3155 40.4148 11.581 40.6848 11.95C40.9548 12.319 41.0898 12.7285 41.0898 13.1785C41.0898 13.7275 40.9593 14.218 40.6983 14.65C40.4373 15.073 40.0728 15.406 39.6048 15.649C39.1368 15.883 38.6013 16 37.9983 16H34.1643ZM37.7148 10.4515C37.9938 10.4515 38.2278 10.3435 38.4168 10.1275C38.6148 9.9025 38.7138 9.6325 38.7138 9.3175C38.7138 8.9755 38.6238 8.71 38.4438 8.521C38.2638 8.323 38.0208 8.224 37.7148 8.224H35.0958V10.4515H37.7148ZM37.9848 14.326C38.3268 14.326 38.5968 14.227 38.7948 14.029C39.0018 13.822 39.1053 13.5475 39.1053 13.2055C39.1053 12.8545 39.0063 12.5845 38.8083 12.3955C38.6103 12.1975 38.3358 12.0985 37.9848 12.0985H35.0958V14.326H37.9848ZM44.5426 16.1215C44.1016 16.1215 43.6876 16.036 43.3006 15.865C42.9226 15.685 42.6166 15.4285 42.3826 15.0955C42.1486 14.7535 42.0316 14.344 42.0316 13.867C42.0316 13.39 42.1576 12.9805 42.4096 12.6385C42.6616 12.2875 42.9946 12.022 43.4086 11.842C43.8316 11.662 44.2906 11.572 44.7856 11.572C45.1996 11.572 45.5641 11.635 45.8791 11.761C46.2031 11.887 46.5046 12.0715 46.7836 12.3145L46.8511 12.2335C46.6621 12.0625 46.5136 11.941 46.4056 11.869V11.6935C46.4056 11.3515 46.2796 11.0815 46.0276 10.8835C45.7846 10.6765 45.4381 10.573 44.9881 10.573C44.5921 10.573 44.2411 10.645 43.9351 10.789C43.6291 10.933 43.3816 11.1445 43.1926 11.4235C42.9766 11.3695 42.7921 11.2705 42.6391 11.1265C42.4951 10.9735 42.4231 10.807 42.4231 10.627C42.4231 10.348 42.5446 10.096 42.7876 9.871C43.0306 9.637 43.3591 9.457 43.7731 9.331C44.1961 9.196 44.6596 9.1285 45.1636 9.1285C46.1446 9.1285 46.9006 9.3535 47.4316 9.8035C47.9626 10.2535 48.2281 10.8655 48.2281 11.6395V14.92C48.2281 15.343 48.0886 15.649 47.8096 15.838C47.5396 16.027 47.1076 16.1215 46.5136 16.1215V15.595C46.6486 15.469 46.7566 15.3565 46.8376 15.2575L46.7701 15.19C46.4731 15.496 46.1626 15.73 45.8386 15.892C45.5146 16.045 45.0826 16.1215 44.5426 16.1215ZM45.0556 14.7985C45.4876 14.7985 45.8251 14.7175 46.0681 14.5555C46.3111 14.3935 46.4326 14.1595 46.4326 13.8535C46.4326 13.5565 46.3066 13.3225 46.0546 13.1515C45.8116 12.9805 45.4786 12.895 45.0556 12.895C44.6776 12.895 44.3761 12.9805 44.1511 13.1515C43.9351 13.3225 43.8271 13.5565 43.8271 13.8535C43.8271 14.1595 43.9351 14.3935 44.1511 14.5555C44.3761 14.7175 44.6776 14.7985 45.0556 14.7985ZM52.4171 16.1215C51.8231 16.1215 51.2966 16.0135 50.8376 15.7975C50.3786 15.5815 50.0186 15.2845 49.7576 14.9065C49.5056 14.5195 49.3796 14.083 49.3796 13.597V11.8015C49.3796 11.2795 49.5056 10.816 49.7576 10.411C50.0186 10.006 50.3786 9.691 50.8376 9.466C51.2966 9.241 51.8186 9.1285 52.4036 9.1285C52.9526 9.1285 53.4386 9.2095 53.8616 9.3715C54.2846 9.5245 54.6131 9.7405 54.8471 10.0195C55.0901 10.2985 55.2116 10.618 55.2116 10.978C55.2116 11.275 55.0946 11.5135 54.8606 11.6935C54.6266 11.8735 54.3161 11.9635 53.9291 11.9635C53.8121 11.9635 53.7266 11.959 53.6726 11.95C53.6726 11.59 53.5601 11.2975 53.3351 11.0725C53.1101 10.8385 52.8176 10.7215 52.4576 10.7215C52.0976 10.7215 51.8006 10.834 51.5666 11.059C51.3416 11.275 51.2291 11.554 51.2291 11.896V13.462C51.2291 13.777 51.3416 14.0335 51.5666 14.2315C51.8006 14.4295 52.1021 14.5285 52.4711 14.5285C52.8311 14.5285 53.1236 14.416 53.3486 14.191C53.5826 13.966 53.6996 13.6735 53.6996 13.3135C53.7626 13.3045 53.8526 13.3 53.9696 13.3C54.3566 13.3 54.6671 13.39 54.9011 13.57C55.1351 13.741 55.2521 13.975 55.2521 14.272C55.2521 14.632 55.1306 14.9515 54.8876 15.2305C54.6536 15.5095 54.3206 15.73 53.8886 15.892C53.4566 16.045 52.9661 16.1215 52.4171 16.1215ZM59.034 16.1215C58.44 16.1215 57.9 16.0135 57.414 15.7975C56.928 15.5815 56.5455 15.2845 56.2665 14.9065C55.9875 14.5195 55.848 14.083 55.848 13.597V11.8015C55.848 11.3065 55.983 10.8565 56.253 10.4515C56.523 10.0375 56.901 9.7135 57.387 9.4795C57.873 9.2455 58.422 9.1285 59.034 9.1285C59.646 9.1285 60.195 9.2455 60.681 9.4795C61.167 9.7135 61.545 10.0375 61.815 10.4515C62.085 10.8565 62.22 11.3065 62.22 11.8015V13.597C62.22 14.083 62.0805 14.5195 61.8015 14.9065C61.5225 15.2845 61.14 15.5815 60.654 15.7975C60.168 16.0135 59.628 16.1215 59.034 16.1215ZM59.034 14.5285C59.457 14.5285 59.7855 14.434 60.0195 14.245C60.2535 14.056 60.3705 13.795 60.3705 13.462V11.896C60.3705 11.545 60.249 11.2615 60.006 11.0455C59.772 10.8295 59.448 10.7215 59.034 10.7215C58.62 10.7215 58.2915 10.8295 58.0485 11.0455C57.8145 11.2615 57.6975 11.545 57.6975 11.896V13.462C57.6975 13.795 57.8145 14.056 58.0485 14.245C58.2825 14.434 58.611 14.5285 59.034 14.5285ZM63.0921 10.5325C63.0921 10.0825 63.2406 9.736 63.5376 9.493C63.8346 9.25 64.2756 9.1285 64.8606 9.1285V9.925C64.7256 10.069 64.6131 10.222 64.5231 10.384L64.6176 10.438C64.8876 10.024 65.2296 9.7045 65.6436 9.4795C66.0666 9.2455 66.5346 9.1285 67.0476 9.1285C67.4976 9.1285 67.8936 9.232 68.2356 9.439C68.5866 9.646 68.8611 9.934 69.0591 10.303C69.2571 10.663 69.3561 11.068 69.3561 11.518V15.0415C69.3561 15.4285 69.2031 15.7075 68.8971 15.8785C68.5911 16.0405 68.1276 16.1215 67.5066 16.1215V11.8015C67.5066 11.4955 67.4076 11.239 67.2096 11.032C67.0206 10.825 66.7506 10.7215 66.3996 10.7215C65.9676 10.7215 65.6166 10.861 65.3466 11.14C65.0766 11.419 64.9416 11.77 64.9416 12.193V15.0415C64.9416 15.4285 64.7886 15.7075 64.4826 15.8785C64.1856 16.0405 63.7221 16.1215 63.0921 16.1215V10.5325Z" />
</svg>
