<svg width="24" height="24" viewBox="0 0 24 24" fill="none"
    xmlns="http://www.w3.org/2000/svg">
    <path d="M3 6.95857C3 6.69667 3.1002 6.47143 3.3006 6.28286C3.51155 6.09429 3.76468 6 4.06001 6H11.1162C11.1162 6.62857 11.0055 7.08952 10.784 7.38286C10.573 7.66571 10.2249 7.80714 9.73977 7.80714H5.12002V10.5414H9.32842C9.32842 11.17 9.21768 11.631 8.99618 11.9243C8.78523 12.2071 8.43717 12.3486 7.95199 12.3486H5.12002V15.1929H10.072C10.5466 15.1929 10.8894 15.3395 11.1004 15.6329C11.3219 15.9157 11.4326 16.3714 11.4326 17H4.06001C3.76468 17 3.51155 16.911 3.3006 16.7329C3.1002 16.5443 3 16.3138 3 16.0414V6.95857Z" />
    <path d="M13.9471 17C13.6623 17 13.4144 16.9057 13.2035 16.7171C12.9925 16.5286 12.8871 16.3033 12.8871 16.0414V6.95857C12.8871 6.69667 12.9873 6.47143 13.1877 6.28286C13.3986 6.09429 13.6518 6 13.9471 6H18.2029C19.2155 6 20.0224 6.28286 20.6236 6.84857C21.2353 7.40381 21.5412 8.15286 21.5412 9.09571C21.5412 9.54619 21.4199 9.97571 21.1773 10.3843C20.9347 10.7824 20.613 11.0914 20.2122 11.3114V11.3586C20.7607 11.5471 21.1931 11.8562 21.5095 12.2857C21.8365 12.7152 22 13.2076 22 13.7629C22 14.3914 21.8523 14.9519 21.557 15.4443C21.2617 15.9367 20.8503 16.319 20.323 16.5914C19.7956 16.8638 19.1944 17 18.5194 17H13.9471ZM18.1713 10.62C18.5194 10.62 18.8147 10.4786 19.0573 10.1957C19.3104 9.91286 19.437 9.57238 19.437 9.17429C19.437 8.74476 19.321 8.40429 19.0889 8.15286C18.8674 7.90143 18.5616 7.77571 18.1713 7.77571H14.9438V10.62H18.1713ZM18.4877 15.2243C18.9202 15.2243 19.263 15.0986 19.5161 14.8471C19.7692 14.5852 19.8958 14.229 19.8958 13.7786C19.8958 13.3386 19.7692 12.9981 19.5161 12.7571C19.2735 12.5057 18.9307 12.38 18.4877 12.38H14.9438V15.2243H18.4877Z" />
</svg>
