<svg width="24" height="24" viewBox="0 0 24 24" fill="none"
    xmlns="http://www.w3.org/2000/svg">
    <path fill-rule="evenodd" clip-rule="evenodd" d="M11.4611 21.7277L11.4869 21.2547L11.5167 20.7064C11.6766 20.7151 11.8378 20.7195 12 20.7195C12.1623 20.7195 12.3234 20.7151 12.4832 20.7064L12.5132 21.2547L12.5389 21.7277C14.8235 21.6032 16.8985 20.6915 18.4976 19.2593L18.1815 18.9065L17.815 18.4974C18.0548 18.2827 18.2827 18.0548 18.4974 17.815L18.9065 18.1815L19.2593 18.4976C20.6915 16.8985 21.6032 14.8235 21.7277 12.5389L21.2547 12.5132L20.7064 12.4832C20.7151 12.3234 20.7195 12.1623 20.7195 12C20.7195 11.8378 20.7151 11.6766 20.7064 11.5167L21.2547 11.4869L21.7277 11.4611C21.6032 9.17655 20.6915 7.10151 19.2593 5.50245L18.9065 5.81851L18.4974 6.18489C18.2827 5.94515 18.0548 5.71735 17.815 5.50261L18.1815 5.09354L18.4976 4.74068C16.8985 3.30846 14.8235 2.39682 12.5389 2.27228L12.5132 2.74528L12.4832 3.29362C12.3234 3.28491 12.1623 3.28049 12 3.28049C11.8378 3.28049 11.6766 3.28491 11.5167 3.29362L11.4869 2.74528L11.4611 2.27228C9.17655 2.39682 7.10151 3.30846 5.50247 4.74068L5.81851 5.09354L6.18489 5.50261C5.94515 5.71735 5.71735 5.94515 5.50261 6.18489L5.09354 5.81851L4.74068 5.50247C3.30846 7.10151 2.39682 9.17655 2.27228 11.4611L2.74528 11.4869L3.29362 11.5167C3.28491 11.6766 3.28049 11.8378 3.28049 12C3.28049 12.1623 3.28491 12.3234 3.29362 12.4832L2.74528 12.5132L2.27228 12.5389C2.39682 14.8235 3.30846 16.8985 4.74068 18.4976L5.09354 18.1815L5.50261 17.815C5.71735 18.0548 5.94515 18.2827 6.18489 18.4974L5.81851 18.9065L5.50247 19.2593C7.10151 20.6915 9.17655 21.6032 11.4611 21.7277ZM23 12C23 18.0752 18.0752 23 12 23C5.92487 23 1 18.0752 1 12C1 5.92487 5.92487 1 12 1C18.0752 1 23 5.92487 23 12Z" fill="currentColor"/>
    <path fill-rule="evenodd" clip-rule="evenodd" d="M5.07844 12.6809L5.19838 12.3238L5.32032 12.162C5.42273 12.0261 5.61345 11.8383 5.74163 11.7121C5.91036 11.546 6.13293 11.3319 6.38893 11.0887C6.90201 10.601 7.56423 9.98145 8.23113 9.36305C9.53096 8.15763 10.9449 6.86603 11.238 6.63704C11.2487 6.62866 11.2609 6.61916 11.2728 6.60979C11.463 6.46044 11.8021 6.19423 12.2279 6.0737C12.7604 5.92296 13.2322 6.0363 13.5411 6.12309L13.5613 6.12876L14.0028 6.26803L14.0226 6.27497C14.3255 6.38111 14.7757 6.55884 15.1145 6.98461C15.3851 7.32485 15.4974 7.7333 15.5603 7.96224C15.5643 7.97668 15.5681 7.99038 15.5717 8.00333C15.6714 8.36227 16.0433 10.2836 16.368 12.035C16.5344 12.9331 16.6947 13.8216 16.8104 14.4978C16.8681 14.8348 16.9158 15.126 16.9479 15.3417C16.9636 15.4478 16.9773 15.5474 16.9862 15.6294C16.9904 15.6685 16.9955 15.7205 16.9982 15.7744C16.9994 15.8002 17.001 15.8445 16.9992 15.8972C16.9991 15.8979 16.9991 15.8988 16.9991 15.9C16.9982 15.9274 16.9937 16.0795 16.9346 16.2554C16.761 16.7725 16.4469 17.1723 15.9505 17.5423C15.6221 17.787 15.1503 18.0062 14.6061 17.9999C13.9762 17.9925 13.3541 17.6714 13.0289 17.0324C12.9683 16.9131 12.93 16.7877 12.9182 16.7492C12.9176 16.7475 12.9171 16.7458 12.9166 16.7444C12.8968 16.6797 12.8761 16.6057 12.8557 16.5297C12.8144 16.3762 12.7645 16.1772 12.7089 15.9515C12.6449 15.691 12.5696 15.3785 12.488 15.0398C12.4291 14.7947 12.3668 14.5358 12.3029 14.2731C12.1306 13.5631 11.9472 12.8227 11.7747 12.1747C11.2415 12.6001 10.6436 13.0942 10.073 13.5698C9.8619 13.7459 9.65433 13.9195 9.45764 14.0841C9.1861 14.3112 8.93543 14.5209 8.72541 14.695C8.54342 14.8458 8.38211 14.9783 8.25556 15.0787C8.1929 15.1285 8.1312 15.1765 8.07584 15.2175C8.07462 15.2185 8.07323 15.2195 8.07167 15.2206C8.03881 15.245 7.93252 15.3239 7.81112 15.3858C7.16011 15.717 6.46121 15.6221 5.9475 15.2689C5.50362 14.9635 5.25569 14.5177 5.13873 14.1324C4.99346 13.6531 4.95086 13.2008 5.06626 12.7306L5.07844 12.6809ZM11.3915 10.8569C11.3915 10.857 11.3916 10.8568 11.3915 10.8569C11.4003 10.8501 11.4092 10.8433 11.4178 10.8366C11.4353 10.823 11.4527 10.8095 11.47 10.7962C11.7163 10.606 11.9418 10.4379 12.1349 10.3026C12.1749 10.2735 12.2216 10.2541 12.2711 10.2461C12.3205 10.2381 12.3711 10.2419 12.4188 10.2569C12.4665 10.272 12.5097 10.2979 12.545 10.3325C12.58 10.3672 12.606 10.4095 12.6205 10.4558C12.6946 10.6753 12.7747 10.9399 12.8584 11.2341C12.8643 11.2547 12.8702 11.2756 12.8761 11.2965C12.879 11.3068 12.882 11.3173 12.8848 11.3277C12.8848 11.3276 12.8848 11.3278 12.8848 11.3277C13.1721 12.3502 13.4966 13.6978 13.7522 14.7594C13.9727 15.675 14.142 16.378 14.1921 16.4765C14.3805 16.8471 14.8269 16.7941 15.1598 16.5461C15.4872 16.3022 15.6224 16.1017 15.7015 15.8664C15.7553 15.7062 14.4818 8.91386 14.3196 8.33057C14.1636 7.77001 14.1025 7.63931 13.5815 7.45669L13.1798 7.33003C12.6479 7.18049 12.5191 7.25091 12.0519 7.61534C11.577 7.98645 6.62374 12.5633 6.36754 12.9032L6.3279 13.0212C6.2777 13.2257 6.28318 13.4491 6.38282 13.7777C6.50133 14.1681 6.83009 14.4656 7.20745 14.2736C7.3078 14.2225 7.87166 13.7507 8.60606 13.1363C9.45756 12.4239 10.5382 11.5197 11.3915 10.8569Z" fill="currentColor"/>
</svg>
