<svg width="24" height="24" viewBox="0 0 24 24" fill="none"
    xmlns="http://www.w3.org/2000/svg">
    <path d="M20.538 7.03222C19.9948 7.01147 19.454 7.11454 18.9565 7.33363C18.459 7.55273 18.0178 7.88211 17.6664 8.29685C17.5934 8.13402 17.4941 7.98433 17.3724 7.85382C16.8609 7.2779 16.0433 7.00806 14.9438 7.00806C13.8725 7.00806 12.9784 7.34234 12.3582 7.86993C12.036 7.34636 11.2627 7 10.3364 7C9.12815 7 7.80713 7.17318 7.02178 8.43378C7.00567 7.97868 6.96136 7.73703 6.70763 7.46719C6.39752 7.14096 5.89408 7.05236 5.40676 7.05236C4.98957 7.04111 4.57744 7.14583 4.21623 7.35488C3.85501 7.56393 3.55889 7.8691 3.3608 8.23643C2.66002 9.35204 0.960429 13.0332 1.0007 14.8173C1.02487 15.9692 1.79814 16.7988 3.17957 16.8311C4.25893 16.8593 5.10873 16.5693 5.64841 16.0256C5.92156 16.3031 6.24963 16.5206 6.61163 16.6642C6.97363 16.8077 7.36161 16.8742 7.75075 16.8593C8.73748 16.8593 9.72421 16.5612 10.3082 15.9168C10.8036 16.5209 11.5769 16.8754 12.5716 16.8713C13.188 16.8675 13.7955 16.7242 14.3486 16.4522C14.9018 16.1802 15.3861 15.7865 15.7654 15.3006C16.1762 16.4162 17.2153 16.8593 18.3511 16.8593C20.84 16.8593 21.9355 15.1476 22.8457 12.4411C23.0471 11.833 23.325 10.814 23.3693 9.96019C23.4418 8.53849 22.8417 7.03222 20.538 7.03222ZM3.98103 13.8386C5.26983 13.6131 5.59202 14.0803 5.55175 14.5072C5.43092 15.796 4.24685 16.086 3.21581 16.0618C2.47476 16.0457 1.80217 15.7034 1.78203 14.8375C1.74981 13.3231 3.29636 9.81923 4.02131 8.65932C4.35962 8.10756 4.76639 7.83369 5.41884 7.83369C6.03907 7.83369 6.19212 8.15589 6.18406 8.53447C6.1599 9.54536 4.52072 12.6304 3.98103 13.8346V13.8386ZM8.17363 12.6465C8.02924 13.0484 7.90425 13.457 7.79908 13.8709C8.21502 13.7506 8.64697 13.6949 9.07982 13.7057C9.69602 13.7219 10.0947 13.9756 10.0947 14.4871C10.0947 15.7275 8.7254 16.09 7.77089 16.094C6.72777 16.094 5.80951 15.498 5.80951 14.3582C5.80951 13.017 6.53445 10.9872 7.21912 9.638C8.05281 7.97465 8.91066 7.75717 10.3807 7.75717C11.0251 7.75717 11.7702 8.03103 11.7702 8.64321C11.7702 9.48898 11.0533 9.81118 10.3444 9.85145C10.0384 9.87159 9.57117 9.8877 9.29327 9.86756C9.29327 9.86756 9.05565 10.23 8.80595 10.8704C10.1229 10.6851 10.6787 10.9832 10.4572 11.7444C10.1552 12.7714 9.26508 12.8398 8.17363 12.6465ZM14.6498 9.44468C14.2914 9.44468 14.0618 9.67022 13.8846 9.91186C13.506 10.4515 12.6763 12.5982 12.5475 13.4802C12.4629 14.0843 12.7207 14.2051 13.0066 14.2051C13.4657 14.2051 13.9772 13.7219 14.1544 12.9244C14.1544 12.9244 13.2805 12.9043 13.5221 12.131C13.7557 11.3819 14.1987 11.2208 14.9317 11.1886C16.3776 11.1282 16.2326 12.1954 16.1198 12.7673C15.7413 14.616 14.4283 16.0981 12.5676 16.0981C11.2949 16.0981 10.5015 15.3933 10.5015 14.0964C10.5015 13.1701 10.9606 11.7202 11.3271 10.8664C12.1004 9.05401 12.914 7.79341 14.9801 7.79341C16.2246 7.79341 17.2032 8.23643 17.0582 9.4044C16.9535 10.2542 16.5266 10.7576 15.7493 10.814C15.5318 10.8342 14.6458 10.814 14.9398 9.96825C15.0445 9.67424 15.0848 9.44468 14.6498 9.44468ZM22.4631 10.9751C22.2456 12.0625 21.7543 13.3513 21.2186 14.3099C20.3487 15.8806 19.2895 16.0981 18.3631 16.086C17.4408 16.0739 16.3977 15.7356 16.3897 14.3099C16.3857 13.2869 16.8287 11.841 17.2032 10.8946C17.8557 9.17484 18.5242 7.7773 20.6346 7.80147C23.0914 7.82966 22.6564 10.0166 22.4631 10.9711V10.9751ZM20.7071 9.89978C20.683 10.5563 19.7204 13.1862 19.3781 13.7662C19.229 14.0159 19.0639 14.2253 18.7619 14.2253C18.5001 14.2253 18.3793 14.036 18.3712 13.8225C18.3551 13.2305 19.4425 10.2582 19.8171 9.77493C19.9782 9.51717 20.1634 9.4769 20.3769 9.48092C20.687 9.48092 20.7152 9.70646 20.7071 9.89978Z" fill="currentColor"/>
</svg>
