<svg xmlns="http://www.w3.org/2000/svg" fill="#7B61C1" viewBox="0 0 294 294">
    <title>React Navigation</title>
    <path fill="inherit" fillRule="evenodd" clipRule="evenodd" d="M294 147a147 147 0 1 1-294 0 147 147 0 0 1 294 0ZM134 284c-5-1-9-3-13-6l-31-23-8-5-35-15-13-8c23 32 59 54 100 57ZM22 205c-2-5-2-10-1-15l4-38v-10l-4-38c-1-5-1-10 1-15a137 137 0 0 0 0 116ZM34 67l13-8 35-15 8-5 31-23c4-3 8-5 13-6-41 3-77 25-100 57Zm226 160c-23 32-59 54-100 57 5-1 9-3 13-6l31-23 8-5 35-15 13-8Zm12-22a137 137 0 0 0 0-116c2 5 2 10 1 15l-4 38v10l4 38c1 5 1 10-1 15ZM260 67l-13-8-35-15-8-5-31-23c-4-3-8-5-13-6 41 3 77 25 100 57Zm-101-3 11 15c6 8 15 13 24 14l19 2c11 0 17 11 12 21l-8 17c-4 9-4 19 0 28l8 17c5 10-1 21-12 21l-19 2c-9 1-18 6-24 14l-11 15c-6 9-18 9-24 0l-11-15c-6-8-15-13-24-14l-19-2c-11 0-17-11-12-21l8-17c4-9 4-19 0-28l-8-17c-5-10 1-21 12-21l19-2c9-1 18-6 24-14l11-15c6-9 18-9 24 0Zm-32-6 5-5-18-4c-15-4-31 5-35 20l-6 18 7-1 19-2c7 0 14-4 18-10l10-16Zm40 0-5-5 18-4c15-4 31 5 35 20l6 18-7-1-19-2c-7 0-14-4-18-10l-10-16Zm81 68-12-13-2 7-8 17c-4 6-4 14 0 20l8 17 1 6 13-13c11-12 11-29 0-41Zm-34 82 6-1-5 17c-4 15-20 24-35 20l-17-4 4-4 10-16c4-6 11-10 18-10l19-2Zm-87 28 4 4-17 4c-15 4-31-5-35-20l-5-17 6 1 19 2c7 0 14 4 18 10l10 16Zm-67-62-2 6-12-13a30 30 0 0 1 0-41l12-13 2 7 8 17c4 6 4 14 0 20l-8 17ZM75 57l-5 10-6 21c-2 6-5 11-9 15l-16 17c-2 3-5 6-6 10l-3-27c-2-15 6-30 20-36l25-10ZM33 163l-3 28c-2 15 6 30 20 36l26 11c-3-4-5-7-6-12l-6-21c-2-6-5-11-9-15l-16-17c-2-3-5-6-6-10Zm83-123-11-1 21-16c13-9 29-9 42 0l21 16-11 1-22 5h-18l-22-5Zm108 27-5-10 25 10c14 6 22 21 20 36l-3 27c-1-4-4-7-7-10l-15-17c-4-4-7-9-9-15l-6-21Zm37 96c-1 4-4 7-7 10l-15 17c-4 4-7 9-9 15l-6 21-6 12 26-11c14-6 22-21 20-36l-3-28Zm-83 90 13 1-23 17c-13 9-29 9-42 0l-23-17 13-1 22-5h18l22 5Z" />
</svg>