<svg width="24" height="24" viewBox="0 0 24 24" fill="none" xmlns="http://www.w3.org/2000/svg">
<path d="M11.8747 7C10.2749 7 8.23452 7.63377 8.23452 9.81109C8.23452 13.1082 12.9467 12.0204 12.9467 13.3853C12.9467 13.9869 12.4474 14.1485 11.9779 14.1485C11.6844 14.1485 11.4198 14.0516 11.2286 13.8887C11.0235 13.7106 10.9061 13.45 10.9061 13.1082H8C8.16092 15.399 10.0984 16 11.8598 16C14.679 16 16 14.7987 16 13.0276C16 9.84252 11.1415 10.6392 11.1415 9.45335C11.1415 9.03093 11.4785 8.85232 12.007 8.85232C12.2413 8.85232 12.4614 8.91675 12.6235 9.06288C12.7849 9.20901 12.8876 9.40412 12.9174 9.68093H15.6921C15.5156 7.42216 13.5485 7 11.8747 7Z" fill="#005480"/>
<path d="M17.5625 14.273C17.4286 14.2883 17.2943 14.2475 17.1892 14.1596C17.1372 14.116 17.0942 14.0622 17.0622 14.0011C17.0302 13.9399 17.01 13.8728 17.0029 13.8036C16.9958 13.7343 17.0018 13.6643 17.0206 13.5975C17.0395 13.5306 17.0707 13.4684 17.1127 13.4142C17.539 12.8611 17.7651 12.1913 17.7651 11.4795C17.7675 10.7896 17.5461 10.119 17.137 9.57691C17.0958 9.52217 17.0654 9.45949 17.0474 9.39245C17.0295 9.32542 17.0244 9.25535 17.0324 9.18626C17.0405 9.11716 17.0615 9.0504 17.0943 8.98981C17.1271 8.92921 17.1711 8.87596 17.2237 8.83311C17.2762 8.79015 17.3363 8.75843 17.4006 8.73976C17.4649 8.72108 17.5322 8.71583 17.5984 8.7243C17.6647 8.73276 17.7287 8.75478 17.7868 8.78909C17.8448 8.8234 17.8959 8.86933 17.9369 8.92425C18.4881 9.65938 18.7794 10.5431 18.7794 11.4795C18.7787 12.4243 18.4698 13.3408 17.9035 14.0781C17.8191 14.1876 17.6965 14.2577 17.5625 14.273Z" fill="#00ADEE"/>
<path d="M19.3724 15.5558C19.2391 15.5756 19.1038 15.5395 18.996 15.4554C18.9427 15.4136 18.898 15.3612 18.8641 15.3013C18.8302 15.2415 18.808 15.1752 18.7986 15.1063C18.7893 15.0374 18.7931 14.9673 18.8098 14.9C18.8265 14.8326 18.8557 14.7694 18.8958 14.7138C19.5656 13.7845 19.9183 12.6764 19.9183 11.5108C19.9183 10.3343 19.5591 9.21913 18.879 8.28515C18.8387 8.22968 18.8093 8.16648 18.7924 8.09913C18.7755 8.03179 18.7714 7.96164 18.7805 7.89268C18.7896 7.82371 18.8116 7.75729 18.8453 7.6972C18.879 7.63712 18.9237 7.58454 18.9769 7.54248C19.0843 7.45787 19.2194 7.42117 19.3527 7.4404C19.4861 7.45964 19.6066 7.53326 19.688 7.64511C20.5028 8.76363 20.9333 10.1006 20.9333 11.5104C20.9333 12.9076 20.5095 14.2361 19.7071 15.3499C19.626 15.462 19.5057 15.5361 19.3724 15.5558Z" fill="#00ADEE"/>
<path d="M21.9855 11.4925C21.9855 9.81681 21.5079 8.20248 20.6043 6.82542C20.5295 6.7096 20.5015 6.56749 20.5266 6.43033C20.5516 6.29318 20.6276 6.17191 20.7379 6.09291C20.8483 6.01391 20.9841 5.98358 21.1157 6.00851C21.2474 6.03345 21.3643 6.11163 21.441 6.22605C22.4609 7.7805 23 9.60195 23 11.4925C23 13.3887 22.458 15.2134 21.4341 16.7707C21.3964 16.828 21.3482 16.877 21.2923 16.9148C21.2363 16.9527 21.1738 16.9787 21.1083 16.9913C21.0427 17.0039 20.9754 17.0028 20.9102 16.9882C20.8451 16.9736 20.7833 16.9458 20.7284 16.9062C20.6735 16.8669 20.6265 16.8166 20.5902 16.7583C20.5538 16.7 20.5289 16.6348 20.5167 16.5664C20.5046 16.498 20.5055 16.4278 20.5193 16.3598C20.5332 16.2918 20.5598 16.2273 20.5976 16.17C21.5051 14.7916 21.9855 13.1733 21.9855 11.4925Z" fill="#00ADEE"/>
<path d="M6.43747 14.273C6.5714 14.2883 6.70568 14.2475 6.81082 14.1596C6.86281 14.116 6.90585 14.0622 6.93784 14.0011C6.96984 13.9399 6.98998 13.8728 6.9971 13.8036C7.00422 13.7343 6.9982 13.6643 6.97936 13.5975C6.96053 13.5306 6.92926 13.4684 6.88734 13.4142C6.46104 12.8611 6.2349 12.1913 6.2349 11.4795C6.23254 10.7896 6.45389 10.119 6.86298 9.57691C6.90418 9.52217 6.93463 9.45949 6.95258 9.39245C6.97053 9.32542 6.97562 9.25535 6.96758 9.18626C6.95953 9.11716 6.93849 9.0504 6.90568 8.98981C6.87286 8.92921 6.82891 8.87596 6.77634 8.83311C6.7238 8.79015 6.66366 8.75843 6.59936 8.73976C6.53505 8.72108 6.46784 8.71583 6.40159 8.7243C6.33533 8.73276 6.27133 8.75478 6.21324 8.78909C6.15516 8.8234 6.10413 8.86933 6.06308 8.92425C5.51188 9.65938 5.22058 10.5431 5.22058 11.4795C5.22134 12.4243 5.53023 13.3408 6.09646 14.0781C6.1809 14.1876 6.30355 14.2577 6.43747 14.273Z" fill="#00ADEE"/>
<path d="M4.62758 15.5558C4.76085 15.5756 4.8962 15.5395 5.004 15.4554C5.0573 15.4136 5.102 15.3612 5.1359 15.3013C5.1698 15.2415 5.19204 15.1752 5.20136 15.1063C5.21068 15.0374 5.20689 14.9673 5.19022 14.9C5.17354 14.8326 5.14431 14.7694 5.10418 14.7138C4.43441 13.7845 4.08174 12.6764 4.08174 11.5108C4.08174 10.3343 4.4409 9.21913 5.12096 8.28515C5.16128 8.22968 5.19073 8.16648 5.20763 8.09913C5.22453 8.03179 5.22856 7.96164 5.21947 7.89268C5.21039 7.82371 5.18838 7.75729 5.15469 7.6972C5.121 7.63712 5.0763 7.58454 5.02314 7.54248C4.91574 7.45787 4.78056 7.42117 4.64725 7.4404C4.51395 7.45964 4.39339 7.53326 4.31204 7.64511C3.49716 8.76363 3.06671 10.1006 3.06671 11.5104C3.06671 12.9076 3.49048 14.2361 4.29291 15.3499C4.37398 15.462 4.49431 15.5361 4.62758 15.5558Z" fill="#00ADEE"/>
<path d="M2.01449 11.4925C2.01449 9.81681 2.49205 8.20248 3.39573 6.82542C3.47047 6.7096 3.49851 6.56749 3.47345 6.43033C3.44839 6.29318 3.37241 6.17191 3.26207 6.09291C3.15173 6.01391 3.01595 5.98358 2.88428 6.00851C2.7526 6.03345 2.6357 6.11163 2.55901 6.22605C1.5391 7.7805 1 9.60195 1 11.4925C1 13.3887 1.54199 15.2134 2.56587 16.7707C2.60361 16.828 2.65181 16.877 2.70773 16.9148C2.76365 16.9527 2.82618 16.9787 2.89174 16.9913C2.9573 17.0039 3.02459 17.0028 3.08977 16.9882C3.15495 16.9736 3.21672 16.9458 3.27155 16.9062C3.32652 16.8669 3.37351 16.8166 3.40984 16.7583C3.44617 16.7 3.47112 16.6348 3.48328 16.5664C3.49543 16.498 3.49454 16.4278 3.48066 16.3598C3.46679 16.2918 3.44019 16.2273 3.4024 16.17C2.49494 14.7916 2.01449 13.1733 2.01449 11.4925Z" fill="#00ADEE"/>
</svg>
